<?xml version="1.0" encoding="UTF-8"?>
<!DOCTYPE svg PUBLIC "-//W3C//DTD SVG 1.1//EN" "http://www.w3.org/Graphics/SVG/1.1/DTD/svg11.dtd">
<svg xmlns="http://www.w3.org/2000/svg" version="1.1" width="238px" height="193px" style="shape-rendering:geometricPrecision; text-rendering:geometricPrecision; image-rendering:optimizeQuality; fill-rule:evenodd; clip-rule:evenodd" xmlns:xlink="http://www.w3.org/1999/xlink">
<g><path style="opacity:1" fill="#067385" d="M -0.5,-0.5 C 78.8333,-0.5 158.167,-0.5 237.5,-0.5C 237.5,1.83333 237.5,4.16667 237.5,6.5C 232.233,22.2196 227.566,38.2196 223.5,54.5C 192.055,56.3154 160.388,57.1488 128.5,57C 127.944,57.3826 127.611,57.8826 127.5,58.5C 126.482,64.5732 125.148,70.5732 123.5,76.5C 122.596,77.209 122.263,78.209 122.5,79.5C 149.521,78.8421 176.188,79.5088 202.5,81.5C 198.968,95.9615 194.968,110.295 190.5,124.5C 164.846,125.12 139.179,125.787 113.5,126.5C 106.886,148.34 100.886,170.34 95.5,192.5C 73.1667,192.5 50.8333,192.5 28.5,192.5C 31.9151,175.503 36.2484,158.836 41.5,142.5C 42.9238,140.485 43.5905,138.152 43.5,135.5C 50.1667,109.833 56.8333,84.1667 63.5,58.5C 53.4905,56.842 43.1572,55.5087 32.5,54.5C 20.0506,49.8886 10.8839,41.5553 5,29.5C 2.84092,24.1561 1.00758,18.8228 -0.5,13.5C -0.5,8.83333 -0.5,4.16667 -0.5,-0.5 Z"/></g>
<g><path style="opacity:0.771" fill="#69a8b4" d="M 32.5,54.5 C 43.1572,55.5087 53.4905,56.842 63.5,58.5C 55.5096,57.9417 47.5096,57.4417 39.5,57C 36.8958,56.6097 34.5625,55.7763 32.5,54.5 Z"/></g>
<g><path style="fill="#077385" d="M 223.5,54.5 C 223.5,55.5 223.5,56.5 223.5,57.5C 191.498,57.6637 159.498,57.997 127.5,58.5C 127.611,57.8826 127.944,57.3826 128.5,57C 160.388,57.1488 192.055,56.3154 223.5,54.5 Z"/></g>
<g><path style="fill="#077385" d="M 123.5,76.5 C 149.986,77.9779 176.653,78.6446 203.5,78.5C 203.737,79.791 203.404,80.791 202.5,81.5C 176.188,79.5088 149.521,78.8421 122.5,79.5C 122.263,78.209 122.596,77.209 123.5,76.5 Z"/></g>
<g><path style="opacity:0.89" fill="#63a9b3" d="M 43.5,135.5 C 43.5905,138.152 42.9238,140.485 41.5,142.5C 41.4095,139.848 42.0762,137.515 43.5,135.5 Z"/></g>
</svg>
